<?xml version='1.0' encoding='UTF-8' standalone='no'?>
<!-- Created with Fritzing (https://fritzing.org/) -->
<svg xmlns="http://www.w3.org/2000/svg"  x="0in" y="0in" viewBox="0 0 32.041 66.242" version="1.2" baseProfile="tiny" height="0.920028in" xmlns:svg="http://www.w3.org/2000/svg" width="0.445014in">
 <g  id="watermark">
  <g >
   <g >
    <path  fill="#8C8C8C" d="M7.30901,60.042c-0.604,0,-1.131,0.325,-1.422,0.809l-2.796,0l3.96,-4.071c0.146,-0.146,0.289,-0.322,0.428,-0.521c0.149,-0.222,0.228,-0.479,0.228,-0.768c0,-0.279,-0.097,-0.518,-0.287,-0.71c-0.19,-0.188,-0.444,-0.287,-0.754,-0.287l-4.636,0c-0.305,0,-0.555,0.06,-0.742,0.17c-0.219,0.13,-0.33,0.368,-0.33,0.707c0,0.329,0.111,0.562,0.33,0.692c0.188,0.111,0.438,0.168,0.742,0.168l3.148,0l-3.974,4.086c-0.146,0.147,-0.289,0.315,-0.425,0.504c-0.153,0.212,-0.23,0.472,-0.23,0.771c0,0.28,0.096,0.521,0.288,0.711c0.188,0.188,0.442,0.285,0.754,0.285l4.315,0c0.293,0.467,0.812,0.776,1.4,0.776c0.916,0,1.66,-0.744,1.66,-1.661C8.96801,60.787,8.22301,60.042,7.30901,60.042zM7.30901,62.305c-0.334,0,-0.604,-0.271,-0.604,-0.604c0,-0.333,0.27,-0.604,0.604,-0.604c0.332,0,0.604,0.271,0.604,0.604C7.91201,62.036,7.64101,62.305,7.30901,62.305z"/>
    <path  fill="#8C8C8C" d="M-9.63399,50c-0.914,0,-1.659,0.745,-1.659,1.66c0,0.916,0.745,1.66,1.659,1.66s1.658,-0.744,1.658,-1.66C-7.97399,50.745,-8.71799,50,-9.63399,50zM-9.63299,52.263c-0.333,0,-0.604,-0.27,-0.604,-0.603s0.271,-0.603,0.604,-0.603c0.331,0,0.604,0.27,0.604,0.603S-9.30199,52.263,-9.63299,52.263z"/>
    <path  fill="#8C8C8C" d="M-1.11299,54.662c-0.193,-0.111,-0.439,-0.169,-0.732,-0.169l-1.465,0L-3.30999,51.971c0,-0.292,-0.057,-0.538,-0.166,-0.729C-3.56599,51.085,-3.75899,50.9,-4.16899,50.9c-0.34,0,-0.578,0.116,-0.709,0.342c-0.109,0.193,-0.167,0.438,-0.167,0.729l0,2.521l-0.481,0c-0.295,0,-0.539,0.06,-0.731,0.169c-0.228,0.129,-0.341,0.368,-0.341,0.708c0,0.412,0.185,0.603,0.341,0.692c0.192,0.111,0.438,0.168,0.731,0.168l0.481,0l0,4.362c0,0.277,0.026,0.533,0.081,0.768c0.056,0.246,0.154,0.464,0.298,0.645c0.146,0.186,0.345,0.332,0.595,0.436c0.241,0.098,0.555,0.146,0.93,0.146l0.896,0c0.292,0,0.539,-0.054,0.731,-0.166c0.154,-0.089,0.341,-0.281,0.341,-0.693c0,-0.338,-0.114,-0.578,-0.341,-0.709c-0.192,-0.109,-0.439,-0.168,-0.731,-0.168l-0.821,0c-0.138,0,-0.19,-0.019,-0.207,-0.024c-0.014,-0.034,-0.035,-0.103,-0.035,-0.231L-3.30799,56.23l1.465,0c0.295,0,0.541,-0.057,0.734,-0.168c0.152,-0.09,0.34,-0.28,0.34,-0.692C-0.772992,55.03,-0.885992,54.791,-1.11299,54.662z"/>
    <path  fill="#8C8C8C" d="M-9.56799,54.492l-1.191,0c-0.292,0,-0.538,0.059,-0.731,0.169c-0.226,0.129,-0.341,0.368,-0.341,0.708c0,0.412,0.188,0.604,0.341,0.691c0.193,0.113,0.439,0.168,0.731,0.168l0.544,0l0,5.362c0,0.293,0.057,0.539,0.167,0.73c0.131,0.227,0.367,0.341,0.708,0.341c0.411,0,0.604,-0.187,0.692,-0.341c0.111,-0.191,0.168,-0.438,0.168,-0.73L-8.47999,55.58c0,-0.386,-0.084,-0.656,-0.256,-0.83C-8.91099,54.578,-9.18099,54.492,-9.56799,54.492z"/>
    <path  fill="#8C8C8C" d="M-13.403,54.662c-0.193,-0.111,-0.44,-0.169,-0.732,-0.169l-0.604,0c-0.25,0,-0.498,0.063,-0.734,0.187c-0.226,0.119,-0.433,0.271,-0.616,0.453l-0.644,0.604l0,-0.247c0,-0.291,-0.055,-0.538,-0.168,-0.729c-0.128,-0.228,-0.368,-0.34,-0.707,-0.34c-0.41,0,-0.604,0.184,-0.693,0.34c-0.11,0.191,-0.167,0.438,-0.167,0.729l0,4.801c-0.475,0.293,-0.791,0.816,-0.791,1.412c0,0.917,0.745,1.661,1.658,1.661c0.916,0,1.66,-0.744,1.66,-1.661c0,-0.596,-0.317,-1.119,-0.792,-1.412l0,-2.21l1.738,-1.564c0.1,-0.09,0.199,-0.164,0.297,-0.217c0.084,-0.045,0.174,-0.067,0.274,-0.067l0.288,0c0.292,0,0.539,-0.056,0.732,-0.169c0.155,-0.088,0.339,-0.279,0.339,-0.691C-13.063,55.03,-13.178,54.791,-13.403,54.662zM-17.602,62.305c-0.332,0,-0.603,-0.271,-0.603,-0.604c0,-0.333,0.271,-0.604,0.603,-0.604c0.333,0,0.604,0.271,0.604,0.604C-16.998,62.036,-17.269,62.305,-17.602,62.305z"/>
    <path  fill="#8C8C8C" d="M-20.119,51.143c-0.193,-0.111,-0.44,-0.167,-0.731,-0.167l-0.59,0c-0.2,0,-0.389,0.004,-0.562,0.016c-0.176,0.009,-0.345,0.035,-0.506,0.07c-0.168,0.041,-0.336,0.109,-0.496,0.202c-0.158,0.093,-0.319,0.222,-0.48,0.382c-0.334,0.314,-0.554,0.656,-0.652,1.017c-0.094,0.348,-0.143,0.735,-0.143,1.151l0,0.678l-0.483,0c-0.292,0,-0.539,0.059,-0.73,0.169c-0.227,0.13,-0.342,0.369,-0.342,0.708c0,0.412,0.185,0.604,0.341,0.693c0.191,0.111,0.438,0.166,0.73,0.166l0.483,0l0,5.362c0,0.293,0.057,0.539,0.167,0.73c0.13,0.227,0.367,0.341,0.708,0.341c0.411,0,0.603,-0.187,0.692,-0.341c0.111,-0.191,0.168,-0.438,0.168,-0.73l0,-5.36l0.92,0c0.293,0,0.54,-0.057,0.732,-0.168c0.155,-0.09,0.34,-0.28,0.34,-0.692c0,-0.34,-0.114,-0.579,-0.34,-0.708c-0.189,-0.111,-0.436,-0.17,-0.729,-0.17l-0.92,0l0,-0.678c0,-0.218,0.019,-0.41,0.056,-0.571c0.032,-0.141,0.103,-0.261,0.218,-0.367l0.002,-0.004l0.002,-0.002c0.082,-0.082,0.176,-0.126,0.29,-0.136c0.15,-0.015,0.339,-0.022,0.564,-0.022l0.56,0c0.291,0,0.539,-0.058,0.731,-0.168c0.154,-0.088,0.339,-0.281,0.339,-0.693C-19.779,51.512,-19.894,51.273,-20.119,51.143z"/>
    <path  fill="#8C8C8C" d="M31.874,54.76c-0.089,-0.156,-0.282,-0.34,-0.693,-0.34c-0.339,0,-0.578,0.113,-0.707,0.34c-0.078,0.133,-0.127,0.293,-0.152,0.477l-0.021,-0.021c-0.216,-0.236,-0.466,-0.42,-0.747,-0.539c-0.277,-0.119,-0.563,-0.183,-0.849,-0.183l-0.709,0c-0.249,0,-0.466,0.015,-0.64,0.041c-0.182,0.026,-0.352,0.074,-0.51,0.14c-0.158,0.066,-0.313,0.15,-0.459,0.254c-0.139,0.097,-0.303,0.226,-0.486,0.377c-0.188,0.156,-0.342,0.302,-0.463,0.434c-0.127,0.141,-0.23,0.293,-0.306,0.455c-0.069,0.16,-0.122,0.337,-0.147,0.523c-0.026,0.178,-0.041,0.391,-0.041,0.631l0,2.386c0,0.24,0.015,0.451,0.041,0.631c0.025,0.188,0.078,0.361,0.147,0.521c0.074,0.164,0.179,0.318,0.306,0.457c0.119,0.129,0.274,0.274,0.463,0.433c0.186,0.153,0.35,0.28,0.486,0.379c0.146,0.103,0.299,0.188,0.459,0.254c0.158,0.065,0.329,0.112,0.51,0.14c0.174,0.026,0.389,0.039,0.64,0.039l0.709,0c0.298,0,0.591,-0.066,0.87,-0.199c0.244,-0.114,0.492,-0.291,0.73,-0.523l0,1.434c0,0.18,-0.025,0.334,-0.072,0.465c-0.043,0.119,-0.159,0.258,-0.344,0.406c-0.154,0.127,-0.309,0.217,-0.457,0.264c-0.15,0.049,-0.341,0.074,-0.563,0.074l-2.203,0c-0.293,0,-0.538,0.055,-0.732,0.166c-0.152,0.088,-0.34,0.282,-0.34,0.692c0,0.341,0.115,0.579,0.34,0.71c0.194,0.109,0.439,0.167,0.732,0.167l2.326,0c0.247,0,0.463,-0.015,0.638,-0.041c0.179,-0.026,0.351,-0.073,0.513,-0.14c0.153,-0.064,0.31,-0.15,0.455,-0.254c0.143,-0.101,0.305,-0.227,0.487,-0.379c0.185,-0.153,0.343,-0.299,0.463,-0.431c0.128,-0.141,0.229,-0.294,0.304,-0.456c0.071,-0.162,0.123,-0.338,0.148,-0.523c0.025,-0.182,0.041,-0.393,0.041,-0.631l0,-7.898C32.041,55.198,31.987,54.951,31.874,54.76zM30.305,59.22c0,0.188,-0.062,0.35,-0.188,0.49c-0.15,0.172,-0.394,0.403,-0.716,0.686l-0.002,0.003l-0.002,0.004c-0.139,0.13,-0.291,0.237,-0.453,0.325c-0.148,0.082,-0.325,0.121,-0.526,0.121L28.117,60.849c-0.222,0,-0.41,-0.021,-0.563,-0.072c-0.148,-0.049,-0.301,-0.137,-0.453,-0.264c-0.231,-0.186,-0.315,-0.322,-0.346,-0.404c-0.049,-0.131,-0.072,-0.285,-0.072,-0.465l0,-2.206c0,-0.18,0.023,-0.336,0.072,-0.467c0.029,-0.082,0.113,-0.217,0.346,-0.403c0.152,-0.127,0.305,-0.216,0.453,-0.265c0.153,-0.049,0.342,-0.072,0.563,-0.072l0.301,0c0.212,0,0.388,0.037,0.526,0.113c0.152,0.082,0.308,0.191,0.457,0.324c0.322,0.293,0.564,0.529,0.716,0.7c0.128,0.146,0.188,0.304,0.188,0.492L30.305,59.22z"/>
    <path  fill="#8C8C8C" d="M11.895,50c-0.914,0,-1.66,0.745,-1.66,1.66c0,0.916,0.746,1.66,1.66,1.66s1.66,-0.744,1.66,-1.66C13.555,50.745,12.809,50,11.895,50zM11.895,52.263c-0.332,0,-0.604,-0.27,-0.604,-0.603s0.271,-0.603,0.604,-0.603s0.604,0.27,0.604,0.603C12.499,51.993,12.227,52.263,11.895,52.263z"/>
    <path  fill="#8C8C8C" d="M22.581,60.268l-0.107,-3.419c-0.011,-0.178,-0.021,-0.338,-0.031,-0.489c-0.01,-0.162,-0.037,-0.322,-0.082,-0.476c-0.045,-0.158,-0.11,-0.309,-0.198,-0.453c-0.093,-0.146,-0.216,-0.289,-0.37,-0.42c-0.225,-0.192,-0.443,-0.334,-0.646,-0.416c-0.207,-0.084,-0.461,-0.127,-0.754,-0.127l-1.012,0c-0.259,0,-0.501,0.058,-0.716,0.164c-0.197,0.098,-0.39,0.203,-0.572,0.315l-0.003,0.002l-0.003,0.003l-0.837,0.555l0,-0.041c0,-0.291,-0.057,-0.539,-0.168,-0.733c-0.129,-0.226,-0.367,-0.339,-0.707,-0.339c-0.411,0,-0.604,0.185,-0.693,0.339c-0.109,0.194,-0.168,0.438,-0.168,0.733l0,6.099c0,0.295,0.059,0.539,0.168,0.734c0.09,0.153,0.282,0.338,0.693,0.338c0.34,0,0.578,-0.114,0.707,-0.338c0.111,-0.195,0.168,-0.439,0.168,-0.734L17.25,57.53l1.953,-1.215c0.04,-0.024,0.082,-0.048,0.121,-0.063c0.031,-0.016,0.07,-0.025,0.115,-0.031c0.049,-0.012,0.117,-0.016,0.195,-0.016l0.362,0c0.188,0,0.334,0.021,0.435,0.059c0.082,0.029,0.143,0.076,0.18,0.143c0.05,0.078,0.08,0.18,0.098,0.303c0.02,0.139,0.034,0.309,0.045,0.504l0.096,3.097c-0.457,0.297,-0.762,0.811,-0.762,1.394c0,0.917,0.746,1.661,1.66,1.661c0.916,0,1.66,-0.744,1.66,-1.661C23.407,61.093,23.074,60.555,22.581,60.268zM21.747,62.305c-0.334,0,-0.602,-0.271,-0.602,-0.604c0,-0.333,0.268,-0.604,0.602,-0.604c0.333,0,0.604,0.271,0.604,0.604C22.352,62.036,22.08,62.305,21.747,62.305z"/>
    <path  fill="#8C8C8C" d="M11.958,54.492l-1.193,0c-0.293,0,-0.539,0.059,-0.731,0.169c-0.226,0.129,-0.341,0.368,-0.341,0.708c0,0.412,0.186,0.604,0.341,0.691c0.192,0.113,0.438,0.168,0.731,0.168l0.545,0l0,5.362c0,0.293,0.055,0.539,0.168,0.73c0.127,0.227,0.365,0.341,0.707,0.341c0.41,0,0.604,-0.187,0.691,-0.341c0.111,-0.191,0.17,-0.438,0.17,-0.73L13.046,55.58c0,-0.386,-0.085,-0.656,-0.259,-0.83C12.615,54.578,12.342,54.492,11.958,54.492z"/>
   </g>
  </g>
 </g>
 <g partID="855263800">
  <g id="breadboard">
   <g id="icon">
    <path fill="#1F7A34" stroke-width="0" d="M0,0L0,19.44A2.16,2.16,0,0,1,0,23.76L0,43.2L32.041,43.2L32.041,0L0,0z" stroke="none"/>
    <g transform="matrix(1, 0, 0, 1, 7.2, 9.79596)">
     <g>
      <g>
       <path fill="#999999" d="M17.641,16.204c0,0.793001,-0.646,1.438,-1.438,1.438L1.438,17.642C0.648,17.642,0,16.996,0,16.204L0,1.438C0.002,0.646,0.648,0,1.438,0l14.768,0c0.793001,0,1.438,0.646,1.438,1.438L17.641,16.204L17.641,16.204z"/>
       <circle cy="2.57" cx="2.57" r="1.529"/>
       <circle cy="2.596" cx="15.116" r="1.529"/>
       <circle cy="15.141" cx="15.09" r="1.528"/>
       <circle cy="15.114" cx="2.545" r="1.528"/>
       <circle cy="8.82202" fill="#3F3F3F" cx="8.82101" r="5.145"/>
       <linearGradient y1="2852.43" gradientUnits="userSpaceOnUse" gradientTransform="matrix(0.7195 0 0 0.7195 -44.442 -2043.5012)" y2="2852.43" id="SVGID_1_" x1="66.8782" x2="81.18">
        <stop offset="0" style="stop-color:#333333"/>
        <stop offset="1" style="stop-color:#3C3C3C"/>
       </linearGradient>
       <circle cy="8.82202" fill="url(#SVGID_1_)" cx="8.82101" r="5.145"/>
       <circle cy="9.432" cx="8.91202" opacity="0.6" r="4.527"/>
       <circle cy="8.85197" fill="#735348" cx="8.829" r="4.412"/>
       <path fill="#FFFFFF" d="M2.374,2.49c0.028,-0.071,0.0850003,-0.128,0.163,-0.142l-0.15,-0.961999c-0.06,0.01,-0.119,0.002,-0.177,0.021L2.21,1.4C1.853,1.509,1.588,1.776,1.45,2.115L2.374,2.49z" opacity="0.5"/>
       <path fill="#FFFFFF" d="M14.918,2.517c0.027,-0.0730001,0.0850003,-0.129,0.164,-0.143l-0.149,-0.963c-0.06,0.011,-0.118,0.002,-0.177,0.02l-0.002,-0.006C14.4,1.533,14.131,1.799,13.996,2.14L14.918,2.517z" opacity="0.5"/>
       <path fill="#FFFFFF" d="M14.891,15.06c0.029,-0.072,0.0830002,-0.129,0.163,-0.143l-0.146,-0.963c-0.062,0.012,-0.118,0.002,-0.179,0.021l-0.001,-0.00799999c-0.354,0.106,-0.623,0.375,-0.759002,0.715L14.891,15.06z" opacity="0.5"/>
       <path fill="#FFFFFF" d="M2.346,15.035c0.029,-0.072,0.0850003,-0.127,0.165,-0.142L2.36,13.929c-0.059,0.014,-0.117,0.002,-0.176,0.021l-0.002,-0.007c-0.354,0.107,-0.622,0.375,-0.760003,0.714L2.346,15.035z" opacity="0.5"/>
       <path fill="#FFFFFF" d="M10.406,4.74c-0.342,-0.134,-0.7,-0.229,-1.08,-0.273C8.37799,4.361,7.47,4.571,6.695,5.001L6.599,5.252c0.866002,-0.463,1.873,-0.678,2.923,-0.562c0.323,0.038,0.639,0.11,0.938002,0.205L10.406,4.74z" opacity="0.6"/>
      </g>
     </g>
    </g>
   </g>
   <g transform="matrix(1, 0, 0, 1, 11.271, 38.4516)">
    <g>
     <rect x="0" y="0" fill="#8D8C8C" height="2.2968" id="connector0pin" width="2.29896"/>
     <rect x="0.56099" y="0.556952" fill="#8C8663" height="1.18189" width="1.18398"/>
     <polygon fill="#B8AF82" points="0,2.2968,0.56099,1.73785,0.56099,0.501957,0,0"/>
     <polygon fill="#80795B" points="1.74297,0.558951,0.56899,0.558951,0,0,2.29896,0"/>
     <polygon fill="#5E5B43" points="1.74297,1.73785,1.74297,0.558951,2.29896,0,2.29896,2.2968"/>
     <polygon fill="#9A916C" points="0,2.2968,0.56699,1.73785,1.74297,1.73785,2.29896,2.2968"/>
    </g>
   </g>
   <g transform="matrix(1, 0, 0, 1, 11.271, 2.4516)">
    <g>
     <rect x="0" y="0" fill="#8D8C8C" height="2.2968" id="connector3pin" width="2.29896"/>
     <rect x="0.56099" y="0.556952" fill="#8C8663" height="1.18189" width="1.18398"/>
     <polygon fill="#B8AF82" points="0,2.2968,0.56099,1.73785,0.56099,0.501957,0,0"/>
     <polygon fill="#80795B" points="1.74297,0.558951,0.56899,0.558951,0,0,2.29896,0"/>
     <polygon fill="#5E5B43" points="1.74297,1.73785,1.74297,0.558951,2.29896,0,2.29896,2.2968"/>
     <polygon fill="#9A916C" points="0,2.2968,0.56699,1.73785,1.74297,1.73785,2.29896,2.2968"/>
    </g>
   </g>
   <g transform="matrix(1, 0, 0, 1, 18.471, 38.4516)">
    <g>
     <rect x="0" y="0" fill="#8D8C8C" height="2.2968" id="connector1pin" width="2.29896"/>
     <rect x="0.56099" y="0.556952" fill="#8C8663" height="1.18189" width="1.18398"/>
     <polygon fill="#B8AF82" points="0,2.2968,0.56099,1.73785,0.56099,0.501957,0,0"/>
     <polygon fill="#80795B" points="1.74297,0.558951,0.56899,0.558951,0,0,2.29896,0"/>
     <polygon fill="#5E5B43" points="1.74297,1.73785,1.74297,0.558951,2.29896,0,2.29896,2.2968"/>
     <polygon fill="#9A916C" points="0,2.2968,0.56699,1.73785,1.74297,1.73785,2.29896,2.2968"/>
    </g>
   </g>
   <g transform="matrix(1, 0, 0, 1, 18.471, 2.4516)">
    <g>
     <rect x="0" y="0" fill="#8D8C8C" height="2.2968" id="connector2pin" width="2.29896"/>
     <rect x="0.56099" y="0.556952" fill="#8C8663" height="1.18189" width="1.18398"/>
     <polygon fill="#B8AF82" points="0,2.2968,0.56099,1.73785,0.56099,0.501957,0,0"/>
     <polygon fill="#80795B" points="1.74297,0.558951,0.56899,0.558951,0,0,2.29896,0"/>
     <polygon fill="#5E5B43" points="1.74297,1.73785,1.74297,0.558951,2.29896,0,2.29896,2.2968"/>
     <polygon fill="#9A916C" points="0,2.2968,0.56699,1.73785,1.74297,1.73785,2.29896,2.2968"/>
    </g>
   </g>
  </g>
 </g>
</svg>
