<?xml version="1.0" encoding="UTF-8" standalone="no"?>
<svg
   viewBox="-81.9995 -12.0085 49284.444 4628.3532"
   version="1.1"
   id="svg70"
   width="49284.445"
   height="4628.353"
   xmlns="http://www.w3.org/2000/svg"
   xmlns:svg="http://www.w3.org/2000/svg">
  <defs
     id="defs4" />
  <path
     style="fill:#008000;stroke-width:1"
     d="M -83.291472,55.5038 H 138.70953 V -12.528199 H -83.291472 Z"
     id="rect4106" />
  <g
     id="g24"
     transform="rotate(180,10.261375,23.200535)">
    <title
       id="title4">resistor</title>
    <rect
       x="17.004"
       y="30.129"
       height="2.266"
       width="4.1160002"
       id="rect18"
       style="fill:#020202" />
    <rect
       x="17.004999"
       y="30.129"
       height="2.266"
       width="0.65499997"
       id="rect20"
       style="fill:#c1c0bf" />
    <rect
       x="20.462"
       y="30.129"
       height="2.266"
       width="0.65799999"
       id="rect22"
       style="fill:#c1c0bf" />
  </g>
  <g
     id="g136"
     transform="rotate(-90,19.071603,59.247426)">
    <rect
       x="44.369999"
       y="6.4910002"
       height="1.834"
       width="3.813"
       id="rect130"
       style="fill:#be944a" />
    <rect
       x="47.324001"
       y="6.4910002"
       height="1.834"
       width="0.85799998"
       id="rect132"
       style="fill:#c1c0bf" />
    <rect
       x="44.369999"
       y="6.4899998"
       height="1.835"
       width="0.85799998"
       id="rect134"
       style="fill:#c1c0bf" />
  </g>
  <g
     id="g160"
     transform="rotate(-90,26.456614,38.21443)">
    <rect
       x="23.184999"
       y="6.8600001"
       height="6.4130001"
       width="2.973"
       id="rect138"
       style="fill:#303030" />
    <polyline
       points="26.158,13.273 26.306,13.64 22.917,13.641 23.185,13.273 "
       id="polyline140"
       style="fill:#1f1f1f" />
    <polygon
       points="23.185,6.86 26.158,6.86 26.306,6.49 22.917,6.49 "
       id="polygon142"
       style="fill:#1f1f1f" />
    <polygon
       points="23.185,13.273 22.917,13.641 22.917,6.582 22.917,6.49 23.185,6.86 "
       id="polygon144"
       style="fill:#262626" />
    <polygon
       points="26.158,13.273 26.306,13.64 26.306,6.582 26.306,6.49 26.158,6.86 "
       id="polygon146" />
    <rect
       x="21.493999"
       y="9.3879995"
       height="1.233"
       width="1.423"
       id="rect148"
       style="fill:#999999" />
    <rect
       x="26.306"
       y="11.868"
       height="1.11"
       width="1.233"
       id="rect150"
       style="fill:#999999" />
    <rect
       x="26.306"
       y="7.0209999"
       height="1.073"
       width="1.233"
       id="rect152"
       style="fill:#999999" />
    <rect
       x="22.110001"
       y="9.3879995"
       height="1.233"
       width="0.43200001"
       id="rect154"
       style="fill:#6d6d6d" />
    <rect
       x="26.636"
       y="11.868"
       height="1.11"
       width="0.40099999"
       id="rect156"
       style="fill:#6d6d6d" />
    <rect
       x="26.636"
       y="7.0209999"
       height="1.073"
       width="0.40099999"
       id="rect158"
       style="fill:#6d6d6d" />
  </g>
  <g
     id="g274"
     transform="rotate(-90,30.094109,29.068433)">
    <rect
       x="35.453999"
       y="11.039"
       height="27.344999"
       width="9.8520002"
       id="rect162"
       style="fill:#2b2b2b" />
    <polygon
       points="35.777,38.187 44.981,38.187 45.306,38.384 35.454,38.384 "
       id="polygon164"
       style="fill:#191919" />
    <polygon
       points="35.454,11.039 45.306,11.039 44.981,11.237 35.777,11.237 "
       id="polygon166"
       style="fill:#191919" />
    <polygon
       points="35.454,11.039 35.777,11.237 35.777,38.187 35.454,38.384 "
       id="polygon168"
       style="fill:#232323" />
    <polygon
       points="44.981,11.237 45.305,11.039 45.305,38.384 44.981,38.187 "
       id="polygon170"
       style="fill:#3d3d3d" />
    <g
       id="g220">
      <g
         id="g176">
        <rect
           x="45.305"
           y="36.541"
           height="1.1109999"
           width="3.471"
           id="rect172"
           style="fill:#999999" />
        <rect
           x="46.679001"
           y="36.541"
           height="1.1109999"
           width="0.87800002"
           id="rect174"
           style="fill:#666766" />
      </g>
      <g
         id="g182">
        <rect
           x="45.305"
           y="33.058998"
           height="1.112"
           width="3.471"
           id="rect178"
           style="fill:#999999" />
        <rect
           x="46.679001"
           y="33.058998"
           height="1.112"
           width="0.87800002"
           id="rect180"
           style="fill:#666766" />
      </g>
      <g
         id="g188">
        <rect
           x="45.305"
           y="29.589001"
           height="1.1109999"
           width="3.471"
           id="rect184"
           style="fill:#999999" />
        <rect
           x="46.679001"
           y="29.589001"
           height="1.1109999"
           width="0.87800002"
           id="rect186"
           style="fill:#666766" />
      </g>
      <g
         id="g194">
        <rect
           x="45.305"
           y="25.966"
           height="1.1109999"
           width="3.471"
           id="rect190"
           style="fill:#999999" />
        <rect
           x="46.679001"
           y="25.966"
           height="1.1109999"
           width="0.87800002"
           id="rect192"
           style="fill:#666766" />
      </g>
      <g
         id="g200">
        <rect
           x="45.305"
           y="22.35"
           height="1.112"
           width="3.471"
           id="rect196"
           style="fill:#999999" />
        <rect
           x="46.679001"
           y="22.35"
           height="1.112"
           width="0.87800002"
           id="rect198"
           style="fill:#666766" />
      </g>
      <g
         id="g206">
        <rect
           x="45.305"
           y="18.857"
           height="1.113"
           width="3.471"
           id="rect202"
           style="fill:#999999" />
        <rect
           x="46.679001"
           y="18.857"
           height="1.113"
           width="0.87800002"
           id="rect204"
           style="fill:#666766" />
      </g>
      <g
         id="g212">
        <rect
           x="45.305"
           y="15.405"
           height="1.113"
           width="3.471"
           id="rect208"
           style="fill:#999999" />
        <rect
           x="46.679001"
           y="15.405"
           height="1.113"
           width="0.87800002"
           id="rect210"
           style="fill:#666766" />
      </g>
      <g
         id="g218">
        <rect
           x="45.305"
           y="11.828"
           height="1.112"
           width="3.471"
           id="rect214"
           style="fill:#999999" />
        <rect
           x="46.68"
           y="11.828"
           height="1.112"
           width="0.87699997"
           id="rect216"
           style="fill:#666766" />
      </g>
    </g>
    <g
       id="g270">
      <g
         id="g226">
        <rect
           x="31.983"
           y="36.512001"
           height="1.112"
           width="3.4719999"
           id="rect222"
           style="fill:#999999" />
        <rect
           x="33.202"
           y="36.512001"
           height="1.112"
           width="0.87800002"
           id="rect224"
           style="fill:#666766" />
      </g>
      <g
         id="g232">
        <rect
           x="31.983"
           y="33.029999"
           height="1.1109999"
           width="3.4719999"
           id="rect228"
           style="fill:#999999" />
        <rect
           x="33.202"
           y="33.029999"
           height="1.1109999"
           width="0.87800002"
           id="rect230"
           style="fill:#666766" />
      </g>
      <g
         id="g238">
        <rect
           x="31.983"
           y="29.559999"
           height="1.113"
           width="3.4719999"
           id="rect234"
           style="fill:#999999" />
        <rect
           x="33.202"
           y="29.559999"
           height="1.113"
           width="0.87800002"
           id="rect236"
           style="fill:#666766" />
      </g>
      <g
         id="g244">
        <rect
           x="31.983"
           y="25.938"
           height="1.1109999"
           width="3.4719999"
           id="rect240"
           style="fill:#999999" />
        <rect
           x="33.202"
           y="25.938"
           height="1.1109999"
           width="0.87800002"
           id="rect242"
           style="fill:#666766" />
      </g>
      <g
         id="g250">
        <rect
           x="31.983"
           y="22.32"
           height="1.113"
           width="3.4719999"
           id="rect246"
           style="fill:#999999" />
        <rect
           x="33.202"
           y="22.32"
           height="1.113"
           width="0.87800002"
           id="rect248"
           style="fill:#666766" />
      </g>
      <g
         id="g256">
        <rect
           x="31.983"
           y="18.827999"
           height="1.113"
           width="3.4719999"
           id="rect252"
           style="fill:#999999" />
        <rect
           x="33.202"
           y="18.827999"
           height="1.113"
           width="0.87800002"
           id="rect254"
           style="fill:#666766" />
      </g>
      <g
         id="g262">
        <rect
           x="31.983"
           y="15.375"
           height="1.113"
           width="3.4719999"
           id="rect258"
           style="fill:#999999" />
        <rect
           x="33.202"
           y="15.375"
           height="1.113"
           width="0.87800002"
           id="rect260"
           style="fill:#666766" />
      </g>
      <g
         id="g268">
        <rect
           x="31.982"
           y="11.799"
           height="1.112"
           width="3.4719999"
           id="rect264"
           style="fill:#999999" />
        <rect
           x="33.202"
           y="11.799"
           height="1.112"
           width="0.87699997"
           id="rect266"
           style="fill:#666766" />
      </g>
    </g>
    <circle
       cx="37.577999"
       cy="12.627"
       r="0.73100001"
       id="circle272"
       style="fill:#232323" />
  </g>
  <g
     id="copper1_1_"
     gorn="0.24"
     transform="matrix(0,-1,0.99874401,0,-4.1438337,50.429049)">
    <title
       id="title10">pinout</title>
    <g
       transform="translate(51.4217,85.080827)"
       id="g14">
      <title
         id="title11">power_supply</title>
      <path
         id="path-17"
         gorn="0.24.0.0.0"
         d="m 8.315,-47.068 c 1.231,0 2.229,-0.998 2.229,-2.229 0,-1.231 -0.998,-2.229 -2.229,-2.229 -1.231,0 -2.229,0.998 -2.229,2.229 0,1.231 0.998,2.229 2.229,2.229 z m 0,-3.563 c 0.736,0 1.333,0.598 1.333,1.334 0,0.736 -0.597,1.334 -1.333,1.334 -0.736,0 -1.333,-0.598 -1.333,-1.334 0,-0.736 0.597,-1.334 1.333,-1.334 z"
         style="fill:#9a916c">
        <title
           id="title12">V+</title>
      </path>
      <path
         id="path-18"
         gorn="0.24.0.0.1"
         d="m 8.315,-54.267 c 1.231,0 2.229,-0.998 2.229,-2.229 0,-1.231 -0.998,-2.229 -2.229,-2.229 -1.231,0 -2.229,0.998 -2.229,2.229 0,1.231 0.998,2.229 2.229,2.229 z m 0,-3.563 c 0.736,0 1.333,0.597 1.333,1.333 0,0.736 -0.597,1.333 -1.333,1.333 -0.736,0 -1.333,-0.597 -1.333,-1.333 0,-0.736 0.597,-1.333 1.333,-1.333 z"
         style="fill:#9a916c">
        <title
           id="title13">GND</title>
      </path>
      <path
         d="m 20.557,-4.775 v -0.159 h 0.486 v 0.159 z"
         transform="rotate(90,38.686416,-38.585466)"
         style="fill:#ffffff"
         id="path13" />
      <path
         d="M 28.451,-4.57 V -4.924 H 28.1 v -0.147 h 0.351 V -5.422 H 28.6 v 0.351 h 0.351 v 0.147 H 28.6 v 0.354 z"
         transform="rotate(90,38.936416,-38.835466)"
         style="fill:#ffffff"
         id="path14" />
    </g>
    <g
       transform="translate(55.617001,40.09097)"
       id="g33">
      <title
         id="title14">second_row</title>
      <path
         id="path-7"
         gorn="0.24.0.0.0"
         d="m 4.12,-18.078 c 1.231,0 2.229,-0.998 2.229,-2.229 0,-1.231 -0.998,-2.229 -2.229,-2.229 -1.231,0 -2.229,0.998 -2.229,2.229 0,1.231 0.998,2.229 2.229,2.229 z m 0,-3.563 c 0.736,0 1.333,0.598 1.333,1.334 0,0.736 -0.597,1.334 -1.333,1.334 -0.736,0 -1.333,-0.598 -1.333,-1.334 0,-0.736 0.597,-1.334 1.333,-1.334 z"
         style="fill:#9a916c">
        <title
           id="title15">D8</title>
      </path>
      <path
         id="path-8"
         gorn="0.24.0.0.1"
         d="m 4.12,-25.277 c 1.231,0 2.229,-0.998 2.229,-2.229 0,-1.231 -0.998,-2.229 -2.229,-2.229 -1.231,0 -2.229,0.998 -2.229,2.229 0,1.231 0.998,2.229 2.229,2.229 z m 0,-3.563 c 0.736,0 1.333,0.597 1.333,1.333 0,0.736 -0.597,1.333 -1.333,1.333 -0.736,0 -1.333,-0.597 -1.333,-1.333 0,-0.736 0.597,-1.333 1.333,-1.333 z"
         style="fill:#9a916c">
        <title
           id="title16">D9</title>
      </path>
      <path
         id="path-9"
         gorn="0.24.0.0.2"
         d="m 4.12,-32.477 c 1.231,0 2.229,-0.998 2.229,-2.23 0,-1.23 -0.998,-2.229 -2.229,-2.229 -1.231,0 -2.229,0.998 -2.229,2.229 0,1.231 0.998,2.23 2.229,2.23 z m 0,-3.562 c 0.736,0 1.333,0.596 1.333,1.332 0,0.736 -0.597,1.334 -1.333,1.334 -0.736,0 -1.333,-0.597 -1.333,-1.333 0,-0.736 0.597,-1.333 1.333,-1.333 z"
         style="fill:#9a916c">
        <title
           id="title17">GND</title>
      </path>
      <path
         id="path-10"
         gorn="0.24.0.0.3"
         d="m 4.12,-39.678 c 1.231,0 2.229,-0.998 2.229,-2.229 0,-1.231 -0.998,-2.229 -2.229,-2.229 -1.231,0 -2.229,0.998 -2.229,2.229 0,1.231 0.998,2.229 2.229,2.229 z m 0,-3.563 c 0.736,0 1.333,0.598 1.333,1.334 0,0.736 -0.597,1.334 -1.333,1.334 -0.736,0 -1.333,-0.598 -1.333,-1.334 0,-0.736 0.597,-1.334 1.333,-1.334 z"
         style="fill:#9a916c">
        <title
           id="title18">A2</title>
      </path>
      <path
         id="path-11"
         style="fill:#9a916c;stroke-width:1"
         d="m 4.121,-51.334 c -1.231,0 -2.23,0.997 -2.23,2.228 0,1.231 0.999,2.229 2.23,2.229 1.231,0 2.228,-0.998 2.228,-2.229 0,-1.231 -0.997,-2.228 -2.228,-2.228 z m 0,0.895 c 0.736,0 1.333,0.597 1.333,1.333 0,0.736 -0.597,1.333 -1.333,1.333 -0.736,0 -1.333,-0.597 -1.333,-1.333 0,-0.736 0.597,-1.333 1.333,-1.333 z">
        <title
           id="title19">A1</title>
      </path>
      <path
         id="path-12"
         style="fill:#9a916c;stroke-width:1"
         d="m 4.121,-58.535 c -1.231,0 -2.23,0.997 -2.23,2.228 0,1.231 0.999,2.23 2.23,2.23 1.231,0 2.228,-0.999 2.228,-2.23 0,-1.231 -0.997,-2.228 -2.228,-2.228 z m 0,0.895 c 0.736,0 1.333,0.597 1.333,1.333 0,0.736 -0.597,1.333 -1.333,1.333 -0.736,0 -1.333,-0.597 -1.333,-1.333 0,-0.736 0.597,-1.333 1.333,-1.333 z">
        <title
           id="title20">RESET</title>
      </path>
      <path
         id="path-13"
         gorn="0.24.0.0.0"
         d="m 4.12,-61.078 c 1.231,0 2.229,-0.962 2.229,-2.148 0,-1.186 -0.998,-2.15 -2.229,-2.15 -1.231,0 -2.229,0.964 -2.229,2.15 0,1.186 0.998,2.148 2.229,2.148 z m 0,-3.435 c 0.736,0 1.333,0.577 1.333,1.287 0,0.708 -0.597,1.285 -1.333,1.285 -0.736,0 -1.333,-0.577 -1.333,-1.285 0,-0.71 0.597,-1.287 1.333,-1.287 z"
         style="fill:#9a916c">
        <title
           id="title21">3V3</title>
      </path>
      <path
         id="path-14"
         gorn="0.24.0.0.1"
         d="m 4.12,-68.018 c 1.231,0 2.229,-0.961 2.229,-2.149 0,-1.187 -0.998,-2.148 -2.229,-2.148 -1.231,0 -2.229,0.961 -2.229,2.148 0,1.188 0.998,2.149 2.229,2.149 z m 0,-3.434 c 0.736,0 1.333,0.575 1.333,1.285 0,0.709 -0.597,1.284 -1.333,1.284 -0.736,0 -1.333,-0.575 -1.333,-1.284 0,-0.71 0.597,-1.285 1.333,-1.285 z"
         style="fill:#9a916c;paint-order:fill">
        <title
           id="title22">I2C_SDA</title>
      </path>
      <path
         id="path-15"
         gorn="0.24.0.0.2"
         d="m 4.12,-74.959 c 1.231,0 2.229,-0.961 2.229,-2.149 0,-1.186 -0.998,-2.149 -2.229,-2.149 -1.231,0 -2.229,0.962 -2.229,2.149 0,1.187 0.998,2.149 2.229,2.149 z m 0,-3.433 c 0.736,0 1.333,0.574 1.333,1.284 0,0.71 -0.597,1.286 -1.333,1.286 -0.736,0 -1.333,-0.575 -1.333,-1.285 0,-0.71 0.597,-1.285 1.333,-1.285 z"
         style="fill:#9a916c">
        <title
           id="title23">I2C_SCL</title>
      </path>
      <path
         id="path-16"
         gorn="0.24.0.0.3"
         d="m 4.12,-81.901 c 1.231,0 2.229,-0.961 2.229,-2.148 0,-1.187 -0.998,-2.148 -2.229,-2.148 -1.231,0 -2.229,0.961 -2.229,2.148 0,1.187 0.998,2.148 2.229,2.148 z m 0,-3.434 c 0.736,0 1.333,0.576 1.333,1.286 0,0.71 -0.597,1.286 -1.333,1.286 -0.736,0 -1.333,-0.576 -1.333,-1.286 0,-0.71 0.597,-1.286 1.333,-1.286 z"
         style="fill:#9a916c">
        <title
           id="title24">GND</title>
      </path>
      <path
         d="m -51.258,-4.893 v -0.152 h 0.546 v 0.478 q -0.126,0.1 -0.26,0.15 -0.133,0.051 -0.274,0.051 -0.19,0 -0.345,-0.081 -0.155,-0.082 -0.234,-0.235 -0.079,-0.154 -0.079,-0.344 0,-0.188 0.078,-0.351 0.079,-0.163 0.227,-0.242 0.147,-0.079 0.34,-0.079 0.14,0 0.253,0.045 0.113,0.045 0.177,0.126 0.064,0.081 0.097,0.211 l -0.154,0.042 q -0.029,-0.098 -0.072,-0.155 -0.043,-0.056 -0.123,-0.09 -0.08,-0.034 -0.177,-0.034 -0.117,0 -0.202,0.036 -0.086,0.036 -0.138,0.094 -0.052,0.058 -0.081,0.127 -0.049,0.12 -0.049,0.259 0,0.173 0.059,0.289 0.059,0.116 0.173,0.172 0.113,0.056 0.24,0.056 0.111,0 0.217,-0.042 0.105,-0.043 0.16,-0.091 v -0.24 z m 0.783,0.505 v -1.288 h 0.175 l 0.676,1.011 v -1.011 h 0.164 v 1.288 h -0.175 L -50.312,-5.4 v 1.012 z m 1.302,0 v -1.288 h 0.443 q 0.151,0 0.23,0.018 0.111,0.025 0.189,0.092 0.102,0.086 0.152,0.22 0.051,0.134 0.051,0.307 0,0.147 -0.034,0.26 -0.035,0.113 -0.088,0.188 -0.054,0.074 -0.118,0.116 -0.063,0.043 -0.153,0.065 -0.091,0.022 -0.207,0.022 z m 0.17,-0.152 h 0.275 q 0.128,0 0.2,-0.024 0.073,-0.024 0.116,-0.067 0.06,-0.06 0.094,-0.163 0.034,-0.102 0.034,-0.248 0,-0.202 -0.066,-0.311 -0.067,-0.108 -0.162,-0.145 -0.068,-0.026 -0.22,-0.026 h -0.271 z"
         transform="rotate(90,15.06868,-19.213341)"
         style="fill:#ffffff"
         id="path24" />
      <path
         d="m -44.919,-4.802 0.161,-0.014 q 0.011,0.097 0.053,0.159 0.042,0.062 0.13,0.1 0.087,0.038 0.197,0.038 0.098,0 0.173,-0.029 0.074,-0.029 0.111,-0.08 0.036,-0.05 0.036,-0.11 0,-0.06 -0.035,-0.106 -0.035,-0.045 -0.116,-0.076 -0.052,-0.02 -0.229,-0.063 -0.178,-0.042 -0.249,-0.08 -0.092,-0.048 -0.138,-0.12 -0.045,-0.072 -0.045,-0.16 0,-0.098 0.055,-0.183 0.056,-0.085 0.162,-0.129 0.107,-0.043 0.237,-0.043 0.143,0 0.252,0.046 0.11,0.046 0.169,0.135 0.058,0.09 0.063,0.204 l -0.164,0.012 q -0.013,-0.122 -0.089,-0.185 -0.076,-0.062 -0.224,-0.062 -0.155,0 -0.226,0.057 -0.071,0.056 -0.071,0.136 0,0.07 0.051,0.114 0.049,0.045 0.257,0.092 0.207,0.047 0.285,0.082 0.112,0.052 0.166,0.132 0.054,0.079 0.054,0.183 0,0.103 -0.059,0.194 -0.059,0.091 -0.17,0.141 -0.11,0.051 -0.248,0.051 -0.175,0 -0.293,-0.051 -0.118,-0.051 -0.185,-0.153 -0.068,-0.103 -0.071,-0.232 z m 2.165,-0.038 0.17,0.043 q -0.053,0.21 -0.193,0.321 -0.139,0.11 -0.34,0.11 -0.208,0 -0.339,-0.085 -0.13,-0.085 -0.199,-0.245 -0.068,-0.161 -0.068,-0.346 0,-0.201 0.077,-0.351 0.077,-0.15 0.219,-0.228 0.142,-0.077 0.312,-0.077 0.194,0 0.326,0.098 0.132,0.098 0.183,0.277 l -0.168,0.039 q -0.044,-0.14 -0.13,-0.204 -0.085,-0.065 -0.214,-0.065 -0.149,0 -0.248,0.072 -0.1,0.071 -0.141,0.191 -0.04,0.12 -0.04,0.247 0,0.165 0.048,0.287 0.048,0.123 0.149,0.183 0.101,0.061 0.219,0.061 0.143,0 0.242,-0.083 0.1,-0.082 0.135,-0.245 z m 0.374,0.452 v -1.288 h 0.17 v 1.136 h 0.635 v 0.152 z"
         transform="rotate(90,14.81868,-18.963341)"
         style="fill:#ffffff"
         id="path25" />
      <path
         d="m -37.809,-4.802 0.161,-0.014 q 0.011,0.097 0.053,0.159 0.042,0.062 0.13,0.1 0.087,0.038 0.197,0.038 0.098,0 0.173,-0.029 0.074,-0.029 0.111,-0.08 0.036,-0.05 0.036,-0.11 0,-0.06 -0.035,-0.106 -0.035,-0.045 -0.116,-0.076 -0.052,-0.02 -0.229,-0.063 -0.178,-0.042 -0.249,-0.08 -0.092,-0.048 -0.138,-0.12 -0.045,-0.072 -0.045,-0.16 0,-0.098 0.055,-0.183 0.056,-0.085 0.162,-0.129 0.107,-0.043 0.237,-0.043 0.143,0 0.252,0.046 0.11,0.046 0.169,0.135 0.058,0.09 0.063,0.204 l -0.164,0.012 q -0.013,-0.122 -0.089,-0.185 -0.076,-0.062 -0.224,-0.062 -0.155,0 -0.226,0.057 -0.071,0.056 -0.071,0.136 0,0.07 0.051,0.114 0.049,0.045 0.257,0.092 0.207,0.047 0.285,0.082 0.112,0.052 0.166,0.132 0.054,0.079 0.054,0.183 0,0.103 -0.059,0.194 -0.059,0.091 -0.17,0.141 -0.11,0.051 -0.248,0.051 -0.175,0 -0.293,-0.051 -0.118,-0.051 -0.185,-0.153 -0.068,-0.103 -0.071,-0.232 z m 1.245,0.414 v -1.288 h 0.444 q 0.151,0 0.23,0.018 0.11,0.025 0.189,0.092 0.102,0.086 0.152,0.22 0.051,0.134 0.051,0.307 0,0.147 -0.035,0.26 -0.034,0.113 -0.087,0.188 -0.054,0.074 -0.118,0.116 -0.063,0.043 -0.154,0.065 -0.09,0.022 -0.207,0.022 z m 0.171,-0.152 h 0.275 q 0.128,0 0.2,-0.024 0.073,-0.024 0.116,-0.067 0.06,-0.06 0.094,-0.163 0.034,-0.102 0.034,-0.248 0,-0.202 -0.066,-0.311 -0.067,-0.108 -0.162,-0.145 -0.068,-0.026 -0.22,-0.026 h -0.271 z m 0.988,0.152 0.495,-1.288 h 0.184 l 0.527,1.288 h -0.194 l -0.151,-0.39 h -0.538 l -0.142,0.39 z m 0.372,-0.529 h 0.437 l -0.135,-0.357 q -0.061,-0.163 -0.091,-0.267 -0.025,0.124 -0.07,0.246 z"
         transform="rotate(90,15.06868,-19.213341)"
         style="fill:#ffffff"
         id="path26" />
      <path
         d="m -30.924,-4.754 0.158,-0.021 q 0.027,0.134 0.093,0.194 0.065,0.059 0.159,0.059 0.112,0 0.189,-0.077 0.076,-0.078 0.076,-0.192 0,-0.109 -0.071,-0.18 -0.071,-0.071 -0.181,-0.071 -0.045,0 -0.111,0.018 l 0.017,-0.139 q 0.016,0.002 0.026,0.002 0.101,0 0.182,-0.053 0.08,-0.053 0.08,-0.162 0,-0.087 -0.058,-0.145 -0.059,-0.057 -0.152,-0.057 -0.093,0 -0.154,0.058 -0.062,0.058 -0.079,0.174 l -0.159,-0.028 q 0.029,-0.159 0.132,-0.246 0.103,-0.088 0.256,-0.088 0.105,0 0.194,0.046 0.089,0.045 0.136,0.123 0.047,0.078 0.047,0.166 0,0.084 -0.045,0.152 -0.045,0.069 -0.132,0.109 0.114,0.027 0.177,0.11 0.063,0.083 0.063,0.207 0,0.169 -0.123,0.287 -0.123,0.117 -0.311,0.117 -0.169,0 -0.282,-0.101 -0.112,-0.101 -0.127,-0.262 z m 1.419,0.34 -0.499,-1.288 h 0.184 l 0.335,0.936 q 0.04,0.112 0.068,0.21 0.03,-0.105 0.069,-0.21 L -29,-5.702 h 0.174 l -0.504,1.288 z m 0.768,-0.34 0.159,-0.021 q 0.027,0.134 0.092,0.194 0.066,0.059 0.16,0.059 0.111,0 0.188,-0.077 0.077,-0.078 0.077,-0.192 0,-0.109 -0.071,-0.18 -0.071,-0.071 -0.181,-0.071 -0.045,0 -0.112,0.018 l 0.018,-0.139 q 0.016,0.002 0.025,0.002 0.101,0 0.182,-0.053 0.081,-0.053 0.081,-0.162 0,-0.087 -0.059,-0.145 -0.059,-0.057 -0.152,-0.057 -0.092,0 -0.154,0.058 -0.061,0.058 -0.079,0.174 l -0.158,-0.028 q 0.029,-0.159 0.132,-0.246 0.103,-0.088 0.256,-0.088 0.105,0 0.194,0.046 0.089,0.045 0.136,0.123 0.047,0.078 0.047,0.166 0,0.084 -0.045,0.152 -0.045,0.069 -0.133,0.109 0.114,0.027 0.178,0.11 0.063,0.083 0.063,0.207 0,0.169 -0.123,0.287 -0.123,0.117 -0.311,0.117 -0.17,0 -0.282,-0.101 -0.112,-0.101 -0.128,-0.262 z"
         transform="rotate(90,14.81868,-18.963341)"
         style="fill:#ffffff"
         id="path27" />
      <path
         d="m -23.858,-4.388 v -1.288 h 0.571 q 0.172,0 0.262,0.034 0.089,0.035 0.143,0.123 0.054,0.088 0.054,0.194 0,0.137 -0.089,0.231 -0.089,0.094 -0.274,0.12 0.067,0.032 0.102,0.064 0.075,0.068 0.142,0.171 l 0.224,0.351 h -0.214 l -0.171,-0.268 q -0.075,-0.116 -0.123,-0.178 -0.048,-0.061 -0.087,-0.086 -0.038,-0.024 -0.077,-0.034 -0.029,-0.006 -0.095,-0.006 h -0.198 v 0.572 z m 0.17,-0.72 h 0.367 q 0.116,0 0.182,-0.024 0.066,-0.024 0.101,-0.077 0.034,-0.054 0.034,-0.116 0,-0.091 -0.067,-0.15 -0.066,-0.059 -0.209,-0.059 h -0.408 z m 1.056,0.306 0.161,-0.014 q 0.012,0.097 0.054,0.159 0.041,0.062 0.129,0.1 0.088,0.038 0.198,0.038 0.097,0 0.172,-0.029 0.075,-0.029 0.111,-0.08 0.037,-0.05 0.037,-0.11 0,-0.06 -0.035,-0.106 -0.035,-0.045 -0.116,-0.076 -0.052,-0.02 -0.23,-0.063 -0.177,-0.042 -0.248,-0.08 -0.093,-0.048 -0.138,-0.12 -0.045,-0.072 -0.045,-0.16 0,-0.098 0.055,-0.183 0.055,-0.085 0.162,-0.129 0.106,-0.043 0.236,-0.043 0.143,0 0.253,0.046 0.109,0.046 0.168,0.135 0.059,0.09 0.064,0.204 l -0.164,0.012 q -0.013,-0.122 -0.089,-0.185 -0.076,-0.062 -0.225,-0.062 -0.154,0 -0.225,0.057 -0.071,0.056 -0.071,0.136 0,0.07 0.05,0.114 0.049,0.045 0.257,0.092 0.208,0.047 0.285,0.082 0.113,0.052 0.167,0.132 0.053,0.079 0.053,0.183 0,0.103 -0.059,0.194 -0.059,0.091 -0.169,0.141 -0.11,0.051 -0.248,0.051 -0.175,0 -0.293,-0.051 -0.119,-0.051 -0.186,-0.153 -0.067,-0.103 -0.071,-0.232 z m 1.586,0.414 v -1.136 h -0.424 v -0.152 h 1.021 v 0.152 h -0.426 v 1.136 z"
         transform="rotate(90,15.06868,-19.213341)"
         style="fill:#ffffff"
         id="path28" />
      <path
         d="m -17.003,-4.362 0.495,-1.288 h 0.184 l 0.527,1.288 h -0.194 l -0.15,-0.39 h -0.539 l -0.142,0.39 z m 0.372,-0.529 h 0.437 l -0.135,-0.357 q -0.061,-0.163 -0.091,-0.267 -0.025,0.124 -0.069,0.246 z m 0.894,0.189 0.158,-0.021 q 0.028,0.134 0.093,0.194 0.066,0.059 0.16,0.059 0.111,0 0.188,-0.077 0.077,-0.078 0.077,-0.192 0,-0.109 -0.071,-0.18 -0.071,-0.071 -0.181,-0.071 -0.045,0 -0.112,0.018 l 0.018,-0.139 q 0.016,0.002 0.025,0.002 0.101,0 0.182,-0.053 0.081,-0.053 0.081,-0.162 0,-0.087 -0.059,-0.145 -0.059,-0.057 -0.152,-0.057 -0.092,0 -0.154,0.058 -0.061,0.058 -0.079,0.174 l -0.158,-0.028 q 0.029,-0.159 0.132,-0.246 0.103,-0.088 0.256,-0.088 0.105,0 0.194,0.046 0.089,0.045 0.136,0.123 0.047,0.078 0.047,0.166 0,0.084 -0.045,0.152 -0.045,0.069 -0.133,0.109 0.114,0.027 0.178,0.11 0.063,0.083 0.063,0.207 0,0.169 -0.123,0.287 -0.123,0.117 -0.311,0.117 -0.17,0 -0.282,-0.101 -0.112,-0.101 -0.128,-0.262 z"
         transform="rotate(90,14.538378,-18.683039)"
         style="fill:#ffffff"
         id="path29" />
      <path
         d="m -9.503,-4.362 0.495,-1.288 h 0.184 l 0.527,1.288 h -0.194 l -0.15,-0.39 H -9.18 l -0.142,0.39 z m 0.372,-0.529 h 0.437 l -0.135,-0.357 q -0.061,-0.163 -0.091,-0.267 -0.025,0.124 -0.069,0.246 z m 1.725,0.377 v 0.152 h -0.852 q -0.002,-0.057 0.019,-0.11 0.032,-0.087 0.104,-0.171 0.071,-0.085 0.207,-0.195 0.21,-0.173 0.284,-0.273 0.073,-0.101 0.073,-0.191 0,-0.094 -0.067,-0.158 -0.067,-0.065 -0.175,-0.065 -0.114,0 -0.183,0.069 -0.069,0.068 -0.069,0.19 l -0.163,-0.017 q 0.017,-0.182 0.126,-0.277 0.109,-0.096 0.292,-0.096 0.186,0 0.294,0.103 0.108,0.103 0.108,0.255 0,0.077 -0.032,0.152 -0.031,0.075 -0.105,0.157 -0.073,0.083 -0.244,0.227 -0.142,0.12 -0.182,0.162 -0.041,0.043 -0.067,0.086 z"
         transform="rotate(90,14.738379,-18.88304)"
         style="fill:#ffffff"
         id="path30" />
      <path
         d="m -1.758,-4.867 v -0.152 h 0.546 v 0.478 q -0.126,0.1 -0.26,0.15 -0.133,0.051 -0.274,0.051 -0.19,0 -0.345,-0.081 Q -2.246,-4.503 -2.325,-4.656 -2.404,-4.81 -2.404,-5 q 0,-0.188 0.078,-0.351 0.079,-0.163 0.227,-0.242 0.147,-0.079 0.34,-0.079 0.14,0 0.253,0.045 0.113,0.045 0.177,0.126 0.064,0.081 0.097,0.211 l -0.154,0.042 q -0.029,-0.098 -0.072,-0.155 -0.043,-0.056 -0.123,-0.09 -0.08,-0.034 -0.177,-0.034 -0.117,0 -0.202,0.036 -0.086,0.036 -0.138,0.094 -0.052,0.058 -0.081,0.127 -0.049,0.12 -0.049,0.259 0,0.173 0.059,0.289 0.059,0.116 0.173,0.172 0.113,0.056 0.24,0.056 0.111,0 0.217,-0.042 0.105,-0.043 0.16,-0.091 v -0.24 z m 0.783,0.505 V -5.65 H -0.8 l 0.676,1.011 V -5.65 H 0.04 v 1.288 h -0.175 l -0.677,-1.012 v 1.012 z m 1.302,0 V -5.65 H 0.77 q 0.151,0 0.23,0.018 0.111,0.025 0.189,0.092 0.102,0.086 0.152,0.22 0.051,0.134 0.051,0.307 0,0.147 -0.034,0.26 -0.035,0.113 -0.088,0.188 -0.054,0.074 -0.118,0.116 -0.063,0.043 -0.153,0.065 -0.091,0.022 -0.207,0.022 z m 0.17,-0.152 h 0.275 q 0.128,0 0.2,-0.024 0.073,-0.024 0.116,-0.067 0.06,-0.06 0.094,-0.163 0.034,-0.102 0.034,-0.248 0,-0.202 -0.066,-0.311 Q 1.083,-5.435 0.988,-5.472 0.92,-5.498 0.768,-5.498 H 0.497 Z"
         transform="rotate(90,15.06868,-19.213341)"
         style="fill:#ffffff"
         id="path31" />
      <path
         d="m 4.939,-4.388 v -1.288 h 0.444 q 0.15,0 0.229,0.018 0.111,0.025 0.189,0.092 0.102,0.086 0.153,0.22 0.05,0.134 0.05,0.307 0,0.147 -0.034,0.26 -0.034,0.113 -0.088,0.188 -0.054,0.074 -0.117,0.116 -0.064,0.043 -0.154,0.065 -0.09,0.022 -0.207,0.022 z m 0.17,-0.152 h 0.275 q 0.128,0 0.2,-0.024 0.073,-0.024 0.116,-0.067 0.061,-0.06 0.094,-0.163 0.034,-0.102 0.034,-0.248 0,-0.202 -0.066,-0.311 Q 5.696,-5.461 5.601,-5.498 5.532,-5.524 5.38,-5.524 H 5.109 Z M 6.186,-4.686 6.338,-4.7 q 0.019,0.107 0.074,0.156 0.054,0.048 0.14,0.048 0.073,0 0.128,-0.034 0.055,-0.033 0.09,-0.089 0.035,-0.056 0.059,-0.15 0.023,-0.095 0.023,-0.194 0,-0.01 -0.001,-0.031 -0.047,0.075 -0.129,0.122 -0.082,0.047 -0.178,0.047 -0.16,0 -0.271,-0.116 -0.111,-0.116 -0.111,-0.306 0,-0.196 0.116,-0.315 0.115,-0.12 0.29,-0.12 0.125,0 0.229,0.068 0.104,0.068 0.159,0.193 0.054,0.125 0.054,0.362 0,0.247 -0.054,0.394 -0.054,0.146 -0.16,0.223 -0.105,0.076 -0.248,0.076 -0.151,0 -0.247,-0.084 -0.096,-0.084 -0.115,-0.236 z m 0.648,-0.569 q 0,-0.136 -0.073,-0.216 -0.072,-0.08 -0.174,-0.08 -0.106,0 -0.184,0.086 -0.078,0.086 -0.078,0.224 0,0.123 0.074,0.2 0.074,0.076 0.183,0.076 0.11,0 0.181,-0.076 0.071,-0.077 0.071,-0.214 z"
         transform="rotate(90,14.71868,-18.86334)"
         style="fill:#ffffff"
         id="path32" />
      <path
         d="M 12.139,-4.362 V -5.65 h 0.444 q 0.15,0 0.229,0.018 0.111,0.025 0.189,0.092 0.102,0.086 0.153,0.22 0.05,0.134 0.05,0.307 0,0.147 -0.034,0.26 -0.034,0.113 -0.088,0.188 -0.054,0.074 -0.117,0.116 -0.064,0.043 -0.154,0.065 -0.09,0.022 -0.207,0.022 z m 0.17,-0.152 h 0.275 q 0.128,0 0.2,-0.024 0.073,-0.024 0.116,-0.067 0.061,-0.06 0.094,-0.163 0.034,-0.102 0.034,-0.248 0,-0.202 -0.066,-0.311 -0.066,-0.108 -0.161,-0.145 -0.069,-0.026 -0.221,-0.026 h -0.271 z m 1.297,-0.547 q -0.099,-0.036 -0.146,-0.103 -0.048,-0.066 -0.048,-0.16 0,-0.14 0.102,-0.236 0.101,-0.096 0.268,-0.096 0.169,0 0.272,0.098 0.103,0.098 0.103,0.239 0,0.09 -0.047,0.156 -0.047,0.066 -0.143,0.102 0.119,0.039 0.181,0.125 0.062,0.086 0.062,0.206 0,0.165 -0.117,0.277 -0.117,0.113 -0.308,0.113 -0.191,0 -0.308,-0.113 -0.116,-0.113 -0.116,-0.282 0,-0.125 0.063,-0.21 0.064,-0.085 0.182,-0.116 z m -0.032,-0.268 q 0,0.092 0.059,0.15 0.059,0.058 0.153,0.058 0.091,0 0.15,-0.058 0.058,-0.058 0.058,-0.141 0,-0.087 -0.06,-0.146 -0.06,-0.06 -0.15,-0.06 -0.09,0 -0.15,0.058 -0.06,0.058 -0.06,0.139 z m -0.051,0.595 q 0,0.068 0.032,0.131 0.032,0.063 0.096,0.098 0.063,0.035 0.136,0.035 0.113,0 0.187,-0.073 0.074,-0.073 0.074,-0.186 0,-0.114 -0.076,-0.188 -0.076,-0.075 -0.19,-0.075 -0.112,0 -0.185,0.074 -0.074,0.073 -0.074,0.184 z"
         transform="rotate(90,14.71868,-18.86334)"
         style="fill:#ffffff"
         id="path33" />
    </g>
    <g
       id="g-1"
       transform="translate(55.6167,69.090821)">
      <title
         id="title33">first_row</title>
      <path
         id="path-1"
         gorn="0.24.0.0.0"
         d="m 4.12,43.922 c 1.231,0 2.229,-0.998 2.229,-2.229 0,-1.231 -0.998,-2.229 -2.229,-2.229 -1.231,0 -2.229,0.998 -2.229,2.229 0,1.231 0.998,2.229 2.229,2.229 z m 0,-3.563 c 0.736,0 1.333,0.598 1.333,1.334 0,0.736 -0.597,1.334 -1.333,1.334 -0.736,0 -1.333,-0.598 -1.333,-1.334 0,-0.736 0.597,-1.334 1.333,-1.334 z"
         style="fill:#9a916c">
        <title
           id="title34">CS</title>
      </path>
      <path
         id="path-2"
         gorn="0.24.0.0.1"
         d="m 4.12,36.723 c 1.231,0 2.229,-0.998 2.229,-2.229 0,-1.231 -0.998,-2.229 -2.229,-2.229 -1.231,0 -2.229,0.998 -2.229,2.229 0,1.231 0.998,2.229 2.229,2.229 z m 0,-3.563 c 0.736,0 1.333,0.597 1.333,1.333 0,0.736 -0.597,1.333 -1.333,1.333 -0.736,0 -1.333,-0.597 -1.333,-1.333 0,-0.736 0.597,-1.333 1.333,-1.333 z"
         style="fill:#9a916c">
        <title
           id="title35">CK</title>
      </path>
      <path
         id="path-3"
         gorn="0.24.0.0.2"
         d="m 4.12,29.523 c 1.231,0 2.229,-0.998 2.229,-2.23 0,-1.23 -0.998,-2.229 -2.229,-2.229 -1.231,0 -2.229,0.998 -2.229,2.229 0,1.231 0.998,2.23 2.229,2.23 z m 0,-3.562 c 0.736,0 1.333,0.596 1.333,1.332 0,0.736 -0.597,1.334 -1.333,1.334 -0.736,0 -1.333,-0.597 -1.333,-1.333 0,-0.736 0.597,-1.333 1.333,-1.333 z"
         style="fill:#9a916c">
        <title
           id="title36">S0</title>
      </path>
      <path
         id="path-4"
         gorn="0.24.0.0.3"
         d="m 4.12,22.322 c 1.231,0 2.229,-0.998 2.229,-2.229 0,-1.231 -0.998,-2.229 -2.229,-2.229 -1.231,0 -2.229,0.998 -2.229,2.229 0,1.231 0.998,2.229 2.229,2.229 z m 0,-3.563 c 0.736,0 1.333,0.598 1.333,1.334 0,0.736 -0.597,1.334 -1.333,1.334 -0.736,0 -1.333,-0.598 -1.333,-1.334 0,-0.736 0.597,-1.334 1.333,-1.334 z"
         style="fill:#9a916c">
        <title
           id="title37">S1</title>
      </path>
      <path
         id="path-5"
         style="fill:#9a916c;stroke-width:1"
         d="m 4.1207324,10.665646 c -1.231,0 -2.2294908,0.997025 -2.2294908,2.228026 0,1.230999 0.9984908,2.22949 2.2294908,2.22949 1.231,0 2.228026,-0.998491 2.228026,-2.22949 0,-1.231001 -0.997026,-2.228026 -2.228026,-2.228026 z m 0,0.895018 c 0.736,0 1.333007,0.597008 1.333007,1.333008 0,0.736 -0.597007,1.333006 -1.333007,1.333007 -0.736,0 -1.333007,-0.597007 -1.333007,-1.333007 0,-0.736 0.597007,-1.333008 1.333007,-1.333008 z">
        <title
           id="title38">3V</title>
      </path>
      <path
         id="path-6"
         style="fill:#9a916c;stroke-width:1"
         d="m 4.1207325,3.4653398 c -1.2310001,0 -2.2294909,0.9970251 -2.2294909,2.2280261 0,1.2309991 0.9984908,2.2294902 2.2294909,2.2294902 1.2309999,0 2.2280259,-0.9984911 2.2280259,-2.2294902 0,-1.231001 -0.997026,-2.2280261 -2.2280259,-2.2280261 z m 0,0.8950181 c 0.7359999,0 1.3330069,0.597007 1.3330069,1.333008 0,0.7360001 -0.597007,1.3330061 -1.3330069,1.3330071 -0.7360001,0 -1.333007,-0.597007 -1.333007,-1.3330071 0,-0.736001 0.5970069,-1.333008 1.333007,-1.333008 z">
        <title
           id="title39">GND</title>
      </path>
      <path
         d="m 67.742,-4.867 v -0.152 h 0.546 v 0.478 q -0.126,0.1 -0.26,0.15 -0.133,0.051 -0.274,0.051 -0.19,0 -0.345,-0.081 Q 67.254,-4.503 67.175,-4.656 67.096,-4.81 67.096,-5 q 0,-0.188 0.078,-0.351 0.079,-0.163 0.227,-0.242 0.147,-0.079 0.34,-0.079 0.14,0 0.253,0.045 0.113,0.045 0.177,0.126 0.064,0.081 0.097,0.211 l -0.154,0.042 q -0.029,-0.098 -0.072,-0.155 -0.043,-0.056 -0.123,-0.09 -0.08,-0.034 -0.177,-0.034 -0.117,0 -0.202,0.036 -0.086,0.036 -0.138,0.094 -0.052,0.058 -0.081,0.127 -0.049,0.12 -0.049,0.259 0,0.173 0.059,0.289 0.059,0.116 0.173,0.172 0.113,0.056 0.24,0.056 0.111,0 0.217,-0.042 0.105,-0.043 0.16,-0.091 v -0.24 z m 0.783,0.505 V -5.65 H 68.7 l 0.676,1.011 V -5.65 h 0.164 v 1.288 h -0.175 l -0.677,-1.012 v 1.012 z m 1.302,0 V -5.65 h 0.443 q 0.151,0 0.23,0.018 0.111,0.025 0.189,0.092 0.102,0.086 0.152,0.22 0.051,0.134 0.051,0.307 0,0.147 -0.034,0.26 -0.035,0.113 -0.088,0.188 -0.054,0.074 -0.118,0.116 -0.063,0.043 -0.153,0.065 -0.091,0.022 -0.207,0.022 z m 0.17,-0.152 h 0.275 q 0.128,0 0.2,-0.024 0.073,-0.024 0.116,-0.067 0.06,-0.06 0.094,-0.163 0.034,-0.102 0.034,-0.248 0,-0.202 -0.066,-0.311 -0.067,-0.108 -0.162,-0.145 -0.068,-0.026 -0.22,-0.026 h -0.271 z"
         transform="rotate(90,29.593911,-33.687961)"
         style="fill:#ffffff"
         id="path39" />
      <path
         d="m 74.176,-4.702 0.158,-0.021 q 0.027,0.134 0.093,0.194 0.065,0.059 0.159,0.059 0.112,0 0.189,-0.077 0.076,-0.078 0.076,-0.192 0,-0.109 -0.071,-0.18 -0.071,-0.071 -0.181,-0.071 -0.045,0 -0.111,0.018 l 0.017,-0.139 q 0.016,0.002 0.026,0.002 0.101,0 0.182,-0.053 0.08,-0.053 0.08,-0.162 0,-0.087 -0.058,-0.145 -0.059,-0.057 -0.152,-0.057 -0.093,0 -0.154,0.058 -0.062,0.058 -0.079,0.174 l -0.159,-0.028 q 0.029,-0.159 0.132,-0.246 0.103,-0.088 0.256,-0.088 0.105,0 0.194,0.046 0.089,0.045 0.136,0.123 0.047,0.078 0.047,0.166 0,0.084 -0.045,0.152 -0.045,0.069 -0.132,0.109 0.114,0.027 0.177,0.11 0.063,0.083 0.063,0.207 0,0.169 -0.123,0.287 -0.123,0.117 -0.311,0.117 -0.169,0 -0.282,-0.101 -0.112,-0.101 -0.127,-0.262 z m 1.419,0.34 -0.499,-1.288 h 0.184 l 0.335,0.936 q 0.04,0.112 0.068,0.21 0.03,-0.105 0.069,-0.21 L 76.1,-5.65 h 0.174 l -0.504,1.288 z"
         transform="rotate(90,29.143907,-33.237957)"
         style="fill:#ffffff"
         id="path40" />
      <path
         d="m 81.481,-4.776 0.161,-0.014 q 0.011,0.097 0.053,0.159 0.042,0.062 0.13,0.1 0.087,0.038 0.197,0.038 0.098,0 0.173,-0.029 0.074,-0.029 0.111,-0.08 0.036,-0.05 0.036,-0.11 0,-0.06 -0.035,-0.106 -0.035,-0.045 -0.116,-0.076 -0.052,-0.02 -0.229,-0.063 -0.178,-0.042 -0.249,-0.08 -0.092,-0.048 -0.138,-0.12 -0.045,-0.072 -0.045,-0.16 0,-0.098 0.055,-0.183 0.056,-0.085 0.162,-0.129 0.107,-0.043 0.237,-0.043 0.143,0 0.252,0.046 0.11,0.046 0.169,0.135 0.058,0.09 0.063,0.204 l -0.164,0.012 q -0.013,-0.122 -0.089,-0.185 -0.076,-0.062 -0.224,-0.062 -0.155,0 -0.226,0.057 -0.071,0.056 -0.071,0.136 0,0.07 0.051,0.114 0.049,0.045 0.257,0.092 0.207,0.047 0.285,0.082 0.112,0.052 0.166,0.132 0.054,0.079 0.054,0.183 0,0.103 -0.059,0.194 -0.059,0.091 -0.17,0.141 -0.11,0.051 -0.248,0.051 -0.175,0 -0.293,-0.051 -0.118,-0.051 -0.185,-0.153 -0.068,-0.103 -0.071,-0.232 z m 1.777,0.414 H 83.1 V -5.37 q -0.057,0.054 -0.15,0.109 -0.093,0.054 -0.166,0.082 v -0.153 q 0.132,-0.063 0.232,-0.151 0.099,-0.089 0.14,-0.173 h 0.102 z"
         transform="rotate(90,29.293908,-33.387958)"
         style="fill:#ffffff"
         id="path41" />
      <path
         d="m 88.681,-4.802 0.161,-0.014 q 0.011,0.097 0.053,0.159 0.042,0.062 0.13,0.1 0.087,0.038 0.197,0.038 0.098,0 0.173,-0.029 0.074,-0.029 0.111,-0.08 0.036,-0.05 0.036,-0.11 0,-0.06 -0.035,-0.106 -0.035,-0.045 -0.116,-0.076 -0.052,-0.02 -0.229,-0.063 -0.178,-0.042 -0.249,-0.08 -0.092,-0.048 -0.138,-0.12 -0.045,-0.072 -0.045,-0.16 0,-0.098 0.055,-0.183 0.056,-0.085 0.162,-0.129 0.107,-0.043 0.237,-0.043 0.143,0 0.252,0.046 0.11,0.046 0.169,0.135 0.058,0.09 0.063,0.204 l -0.164,0.012 q -0.013,-0.122 -0.089,-0.185 -0.076,-0.062 -0.224,-0.062 -0.155,0 -0.226,0.057 -0.071,0.056 -0.071,0.136 0,0.07 0.051,0.114 0.049,0.045 0.257,0.092 0.207,0.047 0.285,0.082 0.112,0.052 0.166,0.132 0.054,0.079 0.054,0.183 0,0.103 -0.059,0.194 -0.059,0.091 -0.17,0.141 -0.11,0.051 -0.248,0.051 -0.175,0 -0.293,-0.051 -0.118,-0.051 -0.185,-0.153 -0.068,-0.103 -0.071,-0.232 z m 1.181,-0.221 q 0,-0.229 0.047,-0.368 0.047,-0.14 0.14,-0.215 0.093,-0.076 0.233,-0.076 0.104,0 0.182,0.042 0.079,0.042 0.13,0.12 0.051,0.079 0.08,0.192 0.029,0.113 0.029,0.305 0,0.226 -0.047,0.366 -0.047,0.139 -0.139,0.215 -0.093,0.076 -0.235,0.076 -0.186,0 -0.292,-0.134 -0.128,-0.16 -0.128,-0.523 z m 0.163,0 q 0,0.317 0.074,0.422 0.074,0.105 0.183,0.105 0.109,0 0.184,-0.106 0.074,-0.105 0.074,-0.421 0,-0.319 -0.074,-0.423 -0.075,-0.105 -0.185,-0.105 -0.109,0 -0.174,0.092 -0.082,0.118 -0.082,0.436 z"
         transform="rotate(90,29.293908,-33.387958)"
         style="fill:#ffffff"
         id="path42" />
      <path
         d="m 97.058,-4.814 0.171,0.043 q -0.054,0.21 -0.193,0.321 -0.14,0.11 -0.341,0.11 -0.208,0 -0.339,-0.085 -0.13,-0.085 -0.198,-0.245 -0.068,-0.161 -0.068,-0.346 0,-0.201 0.077,-0.351 0.076,-0.15 0.218,-0.228 0.142,-0.077 0.313,-0.077 0.193,0 0.325,0.098 0.132,0.098 0.184,0.277 l -0.168,0.039 q -0.045,-0.14 -0.13,-0.204 -0.085,-0.065 -0.215,-0.065 -0.148,0 -0.248,0.072 -0.1,0.071 -0.14,0.191 -0.041,0.12 -0.041,0.247 0,0.165 0.048,0.287 0.048,0.123 0.149,0.183 0.101,0.061 0.219,0.061 0.143,0 0.243,-0.083 0.099,-0.082 0.134,-0.245 z m 0.361,0.452 V -5.65 h 0.171 v 0.638 l 0.64,-0.638 h 0.231 l -0.541,0.522 0.565,0.766 H 98.26 l -0.459,-0.652 -0.211,0.206 v 0.446 z"
         transform="rotate(90,29.293908,-33.387958)"
         style="fill:#ffffff"
         id="path43" />
      <path
         d="m 104.058,-4.788 0.171,0.043 q -0.054,0.21 -0.193,0.321 -0.14,0.11 -0.341,0.11 -0.208,0 -0.339,-0.085 -0.13,-0.085 -0.198,-0.245 -0.068,-0.161 -0.068,-0.346 0,-0.201 0.077,-0.351 0.076,-0.15 0.218,-0.228 0.142,-0.077 0.313,-0.077 0.193,0 0.325,0.098 0.132,0.098 0.184,0.277 l -0.168,0.039 q -0.045,-0.14 -0.13,-0.204 -0.085,-0.065 -0.215,-0.065 -0.148,0 -0.248,0.072 -0.1,0.071 -0.14,0.191 -0.041,0.12 -0.041,0.247 0,0.165 0.048,0.287 0.048,0.123 0.149,0.183 0.101,0.061 0.219,0.061 0.143,0 0.243,-0.083 0.099,-0.082 0.134,-0.245 z m 0.31,0.038 0.161,-0.014 q 0.012,0.097 0.054,0.159 0.041,0.062 0.129,0.1 0.088,0.038 0.198,0.038 0.097,0 0.172,-0.029 0.075,-0.029 0.111,-0.08 0.037,-0.05 0.037,-0.11 0,-0.06 -0.035,-0.106 -0.035,-0.045 -0.116,-0.076 -0.052,-0.02 -0.23,-0.063 -0.177,-0.042 -0.248,-0.08 -0.093,-0.048 -0.138,-0.12 -0.045,-0.072 -0.045,-0.16 0,-0.098 0.055,-0.183 0.055,-0.085 0.162,-0.129 0.106,-0.043 0.236,-0.043 0.143,0 0.253,0.046 0.109,0.046 0.168,0.135 0.059,0.09 0.064,0.204 l -0.164,0.012 q -0.013,-0.122 -0.089,-0.185 -0.076,-0.062 -0.225,-0.062 -0.154,0 -0.225,0.057 -0.071,0.056 -0.071,0.136 0,0.07 0.05,0.114 0.049,0.045 0.257,0.092 0.208,0.047 0.285,0.082 0.113,0.052 0.167,0.132 0.053,0.079 0.053,0.183 0,0.103 -0.059,0.194 -0.059,0.091 -0.169,0.141 -0.11,0.051 -0.248,0.051 -0.175,0 -0.293,-0.051 -0.119,-0.051 -0.186,-0.153 -0.067,-0.103 -0.071,-0.232 z"
         transform="rotate(90,29.293908,-33.387958)"
         style="fill:#ffffff"
         id="path44" />
    </g>
    <g
       id="breadboard"
       transform="matrix(0,-1.0012552,1,0,-11.773188,0.62439118)">
      <title
         id="title44">buttons</title>
      <g
         transform="matrix(0.623441,0,0,0.440076,-67.474069,66.721368)"
         id="g56">
        <title
           id="title45">reset_btn</title>
        <path
           d="m 17.641,16.204 c 0,0.793001 -0.646,1.438 -1.438,1.438 H 1.438 C 0.648,17.642 0,16.996 0,16.204 V 1.438 C 0.002,0.646 0.648,0 1.438,0 h 14.768 c 0.793001,0 1.438,0.646 1.438,1.438 z"
           style="fill:#c8b7b7"
           id="path45" />
        <circle
           cy="2.5699999"
           cx="2.5699999"
           r="1.529"
           id="circle45" />
        <circle
           cy="2.596"
           cx="15.116"
           r="1.529"
           id="circle46" />
        <circle
           cy="15.141"
           cx="15.09"
           r="1.528"
           id="circle47" />
        <circle
           cy="15.114"
           cx="2.5450001"
           r="1.528"
           id="circle48" />
        <circle
           cy="8.8220196"
           cx="8.8210096"
           r="5.145"
           fill="#3f3f3f"
           id="circle49" />
        <linearGradient
           y1="2852.4299"
           gradientUnits="userSpaceOnUse"
           gradientTransform="matrix(0.7195,0,0,0.7195,-44.442,-2043.5012)"
           y2="2852.4299"
           id="SVGID_1_"
           x1="66.878197"
           x2="81.18">
          <stop
             offset="0"
             style="stop-color:#333333"
             id="stop49" />
          <stop
             offset="1"
             style="stop-color:#3C3C3C"
             id="stop50" />
        </linearGradient>
        <circle
           cy="8.8220196"
           cx="8.8210096"
           r="5.145"
           fill="url(#SVGID_1_)"
           id="circle50"
           style="fill:url(#SVGID_1_)" />
        <circle
           cy="9.4320002"
           cx="8.9120197"
           opacity="0.6"
           r="4.527"
           id="circle51" />
        <circle
           cy="8.8519697"
           cx="8.8290005"
           r="4.4120002"
           id="circle52" />
        <path
           d="M 2.374,2.49 C 2.402,2.419 2.459,2.362 2.537,2.348 L 2.387,1.386001 c -0.06,0.01 -0.119,0.002 -0.177,0.021 V 1.4 C 1.853,1.509 1.588,1.776 1.45,2.115 Z"
           opacity="0.5"
           fill="#ffffff"
           id="path52" />
        <path
           d="M 14.918,2.517 C 14.945,2.444 15.003,2.388 15.082,2.374 L 14.933,1.411 c -0.06,0.011 -0.118,0.002 -0.177,0.02 L 14.754,1.425 C 14.4,1.533 14.131,1.799 13.996,2.14 Z"
           opacity="0.5"
           fill="#ffffff"
           id="path53" />
        <path
           d="m 14.891,15.06 c 0.029,-0.072 0.083,-0.129 0.163,-0.143 l -0.146,-0.963 c -0.062,0.012 -0.118,0.002 -0.179,0.021 l -10e-4,-0.008 c -0.354,0.106 -0.623,0.375 -0.759002,0.715 z"
           opacity="0.5"
           fill="#ffffff"
           id="path54" />
        <path
           d="M 2.346,15.035 C 2.375,14.963 2.431,14.908 2.511,14.893 L 2.36,13.929 C 2.301,13.943 2.243,13.931 2.184,13.95 L 2.182,13.943 C 1.828,14.05 1.56,14.318 1.421997,14.657 Z"
           opacity="0.5"
           fill="#ffffff"
           id="path55" />
        <path
           d="M 10.406,4.74 C 10.064,4.606 9.706,4.511 9.326,4.467 8.37799,4.361 7.47,4.571 6.695,5.001 L 6.599,5.252 C 7.465002,4.789 8.472,4.574 9.522,4.69 9.845,4.728 10.161,4.8 10.460002,4.895 Z"
           opacity="0.6"
           fill="#ffffff"
           id="path56" />
      </g>
      <g
         transform="matrix(0.623441,0,0,0.440076,-52.474,66.721002)"
         id="g68">
        <title
           id="title56">boot_btn</title>
        <path
           d="m 17.641,16.204 c 0,0.793001 -0.646,1.438 -1.438,1.438 H 1.438 C 0.648,17.642 0,16.996 0,16.204 V 1.438 C 0.002,0.646 0.648,0 1.438,0 h 14.768 c 0.793001,0 1.438,0.646 1.438,1.438 z"
           style="fill:#c8b7b7"
           id="path57" />
        <circle
           cy="2.5699999"
           cx="2.5699999"
           r="1.529"
           id="circle57" />
        <circle
           cy="2.596"
           cx="15.116"
           r="1.529"
           id="circle58" />
        <circle
           cy="15.141"
           cx="15.09"
           r="1.528"
           id="circle59" />
        <circle
           cy="15.114"
           cx="2.5450001"
           r="1.528"
           id="circle60" />
        <circle
           cy="8.8220196"
           fill="#3f3f3f"
           cx="8.8210096"
           r="5.145"
           id="circle61" />
        <linearGradient
           y1="2852.4299"
           gradientUnits="userSpaceOnUse"
           gradientTransform="matrix(0.7195,0,0,0.7195,-44.442,-2043.5012)"
           y2="2852.4299"
           id="gradient-1"
           x1="66.878197"
           x2="81.18">
          <stop
             offset="0"
             style="stop-color:#333333"
             id="stop61" />
          <stop
             offset="1"
             style="stop-color:#3C3C3C"
             id="stop62" />
        </linearGradient>
        <circle
           cy="8.8220196"
           fill="url(#gradient-1)"
           cx="8.8210096"
           r="5.145"
           id="circle62"
           style="fill:url(#gradient-1)" />
        <circle
           cy="9.4320002"
           cx="8.9120197"
           opacity="0.6"
           r="4.527"
           id="circle63" />
        <circle
           cy="8.8519697"
           cx="8.8290005"
           r="4.4120002"
           id="circle64" />
        <path
           fill="#ffffff"
           d="M 2.374,2.49 C 2.402,2.419 2.459,2.362 2.537,2.348 L 2.387,1.386001 c -0.06,0.01 -0.119,0.002 -0.177,0.021 V 1.4 C 1.853,1.509 1.588,1.776 1.45,2.115 Z"
           opacity="0.5"
           id="path64" />
        <path
           fill="#ffffff"
           d="M 14.918,2.517 C 14.945,2.444 15.003,2.388 15.082,2.374 L 14.933,1.411 c -0.06,0.011 -0.118,0.002 -0.177,0.02 L 14.754,1.425 C 14.4,1.533 14.131,1.799 13.996,2.14 Z"
           opacity="0.5"
           id="path65" />
        <path
           fill="#ffffff"
           d="m 14.891,15.06 c 0.029,-0.072 0.083,-0.129 0.163,-0.143 l -0.146,-0.963 c -0.062,0.012 -0.118,0.002 -0.179,0.021 l -10e-4,-0.008 c -0.354,0.106 -0.623,0.375 -0.759002,0.715 z"
           opacity="0.5"
           id="path66" />
        <path
           fill="#ffffff"
           d="M 2.346,15.035 C 2.375,14.963 2.431,14.908 2.511,14.893 L 2.36,13.929 C 2.301,13.943 2.243,13.931 2.184,13.95 L 2.182,13.943 C 1.828,14.05 1.56,14.318 1.421997,14.657 Z"
           opacity="0.5"
           id="path67" />
        <path
           fill="#ffffff"
           d="M 10.406,4.74 C 10.064,4.606 9.706,4.511 9.326,4.467 8.37799,4.361 7.47,4.571 6.695,5.001 L 6.599,5.252 C 7.465002,4.789 8.472,4.574 9.522,4.69 9.845,4.728 10.161,4.8 10.460002,4.895 Z"
           opacity="0.6"
           id="path68" />
      </g>
      <path
         d="m 44.402,-64.124 v -1.288 h 0.483 q 0.148,0 0.237,0.039 0.089,0.039 0.14,0.12 0.05,0.081 0.05,0.17 0,0.083 -0.044,0.156 -0.045,0.073 -0.136,0.117 0.117,0.035 0.18,0.117 0.063,0.083 0.063,0.195 0,0.091 -0.038,0.169 -0.039,0.078 -0.095,0.12 -0.056,0.042 -0.141,0.063 -0.085,0.022 -0.208,0.022 z m 0.17,-0.747 h 0.279 q 0.113,0 0.163,-0.015 0.065,-0.019 0.098,-0.064 0.033,-0.045 0.033,-0.113 0,-0.064 -0.031,-0.113 -0.031,-0.048 -0.088,-0.066 -0.057,-0.018 -0.196,-0.018 h -0.258 z m 0,0.595 h 0.321 q 0.083,0 0.116,-0.006 0.059,-0.011 0.099,-0.035 0.039,-0.025 0.065,-0.072 0.025,-0.047 0.025,-0.109 0,-0.072 -0.037,-0.125 -0.037,-0.053 -0.102,-0.074 -0.066,-0.022 -0.189,-0.022 h -0.298 z m 1.352,0.152 V -65.26 H 45.5 v -0.152 h 1.021 v 0.152 h -0.426 v 1.136 z m 0.771,0 v -1.288 h 0.175 l 0.677,1.011 v -1.011 h 0.163 v 1.288 h -0.175 l -0.677,-1.013 v 1.013 z"
         transform="scale(-1)"
         style="fill:#ffffff"
         id="path69" />
      <path
         d="m 59.811,-64.098 v -1.288 h 0.571 q 0.172,0 0.262,0.034 0.089,0.035 0.143,0.123 0.054,0.088 0.054,0.194 0,0.137 -0.089,0.231 -0.089,0.094 -0.274,0.12 0.067,0.032 0.102,0.064 0.075,0.068 0.142,0.171 l 0.224,0.351 h -0.214 l -0.171,-0.268 q -0.075,-0.116 -0.123,-0.178 -0.048,-0.061 -0.087,-0.086 -0.038,-0.024 -0.077,-0.034 -0.029,-0.006 -0.095,-0.006 h -0.198 v 0.572 z m 0.17,-0.72 h 0.367 q 0.116,0 0.182,-0.024 0.066,-0.024 0.101,-0.077 0.034,-0.054 0.034,-0.116 0,-0.091 -0.067,-0.15 -0.066,-0.059 -0.209,-0.059 h -0.408 z m 1.056,0.306 0.161,-0.014 q 0.012,0.097 0.054,0.159 0.041,0.062 0.129,0.1 0.088,0.038 0.198,0.038 0.097,0 0.172,-0.029 0.075,-0.029 0.111,-0.08 0.037,-0.05 0.037,-0.11 0,-0.06 -0.035,-0.106 -0.035,-0.045 -0.116,-0.076 -0.052,-0.02 -0.23,-0.063 -0.177,-0.042 -0.248,-0.08 -0.093,-0.048 -0.138,-0.12 -0.045,-0.072 -0.045,-0.16 0,-0.098 0.055,-0.183 0.055,-0.085 0.162,-0.129 0.106,-0.043 0.236,-0.043 0.143,0 0.253,0.046 0.109,0.046 0.168,0.135 0.059,0.09 0.064,0.204 l -0.164,0.012 q -0.013,-0.122 -0.089,-0.185 -0.076,-0.062 -0.225,-0.062 -0.154,0 -0.225,0.057 -0.071,0.056 -0.071,0.136 0,0.07 0.05,0.114 0.049,0.045 0.257,0.092 0.208,0.047 0.285,0.082 0.113,0.052 0.167,0.132 0.053,0.079 0.053,0.183 0,0.103 -0.059,0.194 -0.059,0.091 -0.169,0.141 -0.11,0.051 -0.248,0.051 -0.175,0 -0.293,-0.051 -0.119,-0.051 -0.186,-0.153 -0.067,-0.103 -0.071,-0.232 z m 1.586,0.414 v -1.136 h -0.424 v -0.152 h 1.021 v 0.152 h -0.426 v 1.136 z"
         transform="scale(-1)"
         style="fill:#ffffff"
         id="path70" />
    </g>
  </g>
  <text
     xml:space="preserve"
     style="font-size:4.98705px;fill:#c8b7b7;stroke-width:1.24676"
     x="11.135605"
     y="57.534901"
     id="text1"
     transform="rotate(90)"><tspan
       id="tspan1"
       x="11.135605"
       y="57.534901"
       style="stroke-width:1.24676">Asset Tracker</tspan></text>
</svg>
